<?xml version="1.0" standalone="no"?>
<!DOCTYPE svg PUBLIC "-//W3C//DTD SVG 20010904//EN"
 "http://www.w3.org/TR/2001/REC-SVG-20010904/DTD/svg10.dtd">
<svg version="1.0" xmlns="http://www.w3.org/2000/svg"
 width="225.000000pt" height="225.000000pt" viewBox="0 0 225.000000 225.000000"
 preserveAspectRatio="xMidYMid meet">

<g transform="translate(0.000000,225.000000) scale(0.100000,-0.100000)"
fill="#000000" stroke="none">
<path d="M972 2147 c-6 -7 -18 -69 -26 -137 -26 -203 -17 -183 -95 -213 -38
-15 -71 -27 -73 -27 -3 0 -61 43 -129 95 -67 52 -129 95 -137 95 -16 0 -197
-173 -214 -203 -11 -21 0 -39 115 -187 l73 -94 -29 -71 c-16 -38 -30 -71 -31
-72 -1 -1 -71 -11 -156 -22 -120 -15 -157 -23 -167 -37 -18 -24 -18 -273 0
-297 9 -12 46 -20 137 -32 201 -25 185 -19 211 -83 12 -32 26 -62 32 -69 6 -9
-18 -47 -80 -125 -107 -135 -117 -152 -104 -175 11 -22 195 -203 205 -203 16
0 56 27 158 107 58 45 110 83 114 83 5 0 39 -12 76 -27 77 -30 68 -9 94 -213
8 -68 20 -130 26 -137 17 -20 291 -18 308 2 10 12 48 250 50 312 0 6 17 17 38
24 20 6 53 20 72 29 l35 18 50 -40 c114 -90 208 -158 218 -158 17 0 217 203
217 220 0 9 -43 72 -95 139 -52 68 -95 126 -95 130 0 5 49 128 55 139 1 1 71
11 155 22 84 11 159 25 166 31 21 17 20 292 -1 309 -11 9 -251 48 -311 50 -9
0 -64 124 -64 144 0 4 43 62 95 129 52 67 95 129 95 137 0 20 -201 220 -220
220 -8 0 -69 -43 -135 -95 -66 -52 -124 -95 -130 -95 -7 0 -96 34 -142 55 -1
0 -9 61 -18 135 -9 74 -21 150 -26 168 l-11 32 -148 0 c-107 0 -150 -3 -158
-13z m282 -54 c3 -16 12 -89 21 -163 15 -129 23 -149 53 -150 8 0 45 -15 83
-34 l69 -34 117 92 c65 51 124 96 132 100 9 6 38 -16 97 -75 46 -46 84 -86 84
-90 0 -3 -45 -63 -99 -134 l-100 -128 28 -56 c16 -31 34 -73 40 -93 7 -21 16
-38 19 -38 4 0 77 -9 162 -20 85 -11 156 -20 158 -20 1 0 2 -56 2 -125 0 -69
-4 -125 -8 -125 -14 0 -257 -30 -289 -36 -26 -5 -34 -13 -44 -43 -6 -20 -22
-57 -35 -83 -13 -26 -24 -54 -24 -61 0 -8 43 -69 95 -136 52 -67 95 -125 95
-129 0 -4 -38 -45 -84 -91 -63 -63 -88 -82 -98 -75 -7 6 -66 52 -130 102
l-118 92 -37 -19 c-21 -10 -64 -27 -95 -37 -32 -10 -58 -23 -58 -29 0 -14 -28
-240 -35 -282 l-6 -33 -124 0 c-100 0 -125 3 -125 14 0 21 -39 308 -42 311 -2
1 -32 12 -68 24 -36 13 -75 30 -88 38 -27 17 -9 27 -177 -101 l-116 -90 -84
84 c-47 47 -85 87 -85 91 0 3 44 63 99 133 l99 126 -34 78 c-19 42 -34 85 -34
95 0 9 -1 17 -2 17 -2 0 -73 9 -158 20 -85 11 -161 20 -167 20 -10 0 -13 32
-13 125 0 69 3 125 8 125 4 0 75 9 157 20 83 11 155 20 161 20 7 0 15 15 18
33 3 17 19 60 35 94 l30 62 -91 118 c-50 65 -95 124 -101 131 -8 10 10 34 74
98 46 46 87 84 90 84 4 0 65 -45 135 -99 l128 -99 56 28 c30 15 72 33 92 39
31 10 38 18 43 44 7 46 35 269 35 284 0 10 29 13 124 13 l124 0 6 -27z"/>
<path d="M992 1655 c-71 -20 -154 -61 -194 -97 l-33 -29 35 5 c127 19 140 19
140 1 0 -9 3 -15 8 -13 108 55 125 60 185 56 34 -3 69 -8 79 -12 11 -5 17 -2
20 11 2 14 18 20 73 28 l70 11 -60 23 c-77 30 -243 39 -323 16z"/>
<path d="M1430 1534 c-8 -1 -36 -6 -62 -9 l-47 -6 -3 -210 c-2 -115 -2 -209 0
-209 49 0 214 36 240 52 72 45 82 157 16 187 l-24 10 25 27 c33 35 41 83 21
122 -8 16 -23 32 -31 36 -17 6 -107 6 -135 0z m75 -103 c7 -24 -3 -49 -23 -55
-72 -19 -72 -19 -72 22 0 48 4 52 51 52 28 0 39 -5 44 -19z m0 -144 c13 -10
16 -21 11 -40 -6 -26 -13 -30 -73 -42 l-33 -7 0 46 c0 43 1 45 33 49 17 2 35
5 38 5 3 1 13 -4 24 -11z"/>
<path d="M1073 1491 c-101 -25 -162 -114 -163 -235 0 -132 56 -200 162 -193
116 7 189 98 190 239 1 49 -4 84 -15 104 -18 34 -71 84 -90 84 -7 0 -21 2 -32
4 -11 3 -35 1 -52 -3z m65 -116 c27 -34 35 -86 22 -135 -15 -55 -42 -80 -85
-80 -28 0 -37 5 -50 30 -19 37 -19 123 0 160 28 54 81 66 113 25z"/>
<path d="M789 1443 c-20 -5 -29 -68 -29 -205 0 -53 -3 -103 -6 -112 -7 -18
-54 -22 -70 -6 -8 8 -19 -2 -38 -30 -26 -40 -27 -42 -9 -56 41 -32 116 -30
163 4 52 38 60 72 60 250 l0 162 -27 -1 c-16 -1 -35 -3 -44 -6z"/>
<path d="M648 1384 c-14 -27 -33 -74 -41 -104 -17 -61 -30 -140 -23 -140 2 0
25 30 51 66 l46 66 -3 81 -3 81 -27 -50z"/>
<path d="M1528 1063 l-38 -4 0 -115 0 -116 43 7 c93 14 97 16 97 40 0 21 -3
22 -45 17 -40 -4 -45 -2 -45 15 0 16 9 22 40 27 32 5 40 10 40 27 0 19 -5 21
-40 17 -36 -3 -40 -1 -38 17 2 16 12 21 46 23 37 3 42 6 42 28 0 26 -6 27
-102 17z"/>
<path d="M1417 1043 c-4 -3 -7 -28 -7 -55 0 -26 -3 -48 -7 -48 -5 0 -21 21
-37 46 -24 37 -33 45 -55 42 l-26 -3 -3 -112 c-2 -103 -1 -113 15 -113 35 0
44 15 39 63 -3 26 -2 49 2 51 4 2 20 -18 37 -45 24 -41 34 -49 55 -47 25 3 25
4 28 116 2 104 1 112 -16 112 -10 0 -22 -3 -25 -7z"/>
<path d="M1200 905 l0 -115 25 0 25 0 0 115 0 115 -25 0 -25 0 0 -115z"/>
<path d="M1038 980 c-36 -28 -51 -72 -45 -127 6 -56 33 -83 84 -83 19 0 48 9
64 21 25 18 29 27 29 70 l0 50 -42 -3 c-36 -2 -44 -7 -46 -25 -3 -18 2 -23 18
-23 32 0 22 -34 -12 -38 -34 -4 -52 27 -44 73 8 42 29 59 64 52 21 -4 31 -1
40 14 7 11 10 24 7 29 -11 18 -91 11 -117 -10z"/>
<path d="M917 973 c-4 -3 -7 -31 -7 -61 l0 -54 -32 48 c-24 36 -40 50 -60 52
l-28 3 0 -115 c0 -86 3 -116 13 -116 26 0 36 18 39 70 l3 55 34 -53 c25 -39
39 -52 57 -52 24 0 24 0 24 115 0 105 -2 115 -18 115 -10 0 -22 -3 -25 -7z"/>
<path d="M690 943 c-75 -12 -70 -2 -70 -124 l0 -111 63 7 c74 9 77 10 77 39 0
21 -3 22 -45 16 -42 -6 -45 -6 -45 17 0 20 5 23 40 23 37 0 40 2 40 26 0 25
-2 26 -40 20 -35 -5 -40 -4 -40 13 0 19 25 31 68 31 17 0 22 6 22 25 0 26 -8
28 -70 18z"/>
<path d="M1315 719 c-104 -16 -228 -33 -275 -39 -47 -6 -107 -14 -135 -18
l-50 -8 42 -22 c137 -71 341 -67 485 10 57 30 154 108 133 107 -5 -1 -95 -14
-200 -30z"/>
</g>
</svg>
